<?xml version="1.0" encoding="UTF-8"?>
<!DOCTYPE svg PUBLIC "-//W3C//DTD SVG 1.1//EN" "http://www.w3.org/Graphics/SVG/1.1/DTD/svg11.dtd">
<svg version="1.1" xmlns="http://www.w3.org/2000/svg" xmlns:xlink="http://www.w3.org/1999/xlink" x="0" y="0" width="90" height="48" viewBox="0, 0, 90, 48">
  <g id="Background">
    <rect x="0" y="0" width="90" height="48" fill="#000000" fill-opacity="0"/>
  </g>
  <g id="Layer_1">
    <text transform="matrix(1, 0, 0, 1, 360, 246)">
      <tspan x="-84" y="-36" font-family="CherieBomb-Regular" font-size="28" fill="#000000">R </tspan>
      <tspan x="-58.772" y="-36" font-family="CherieBomb-Regular" font-size="21" fill="#000000">&amp; </tspan>
      <tspan x="-37.772" y="-36" font-family="CherieBomb-Regular" font-size="28" fill="#000000">E</tspan>
    </text>
    <text transform="matrix(1, 0, 0, 1, 360, 378)">
      <tspan x="-84" y="-31" font-family="Gineva-Regular" font-size="28" fill="#000000">R </tspan>
      <tspan x="-48.216" y="-31" font-family="Gineva-Regular" font-size="21" fill="#000000">&amp;</tspan>
      <tspan x="-35.616" y="-31" font-family="Gineva-Regular" font-size="28" fill="#000000"> E</tspan>
    </text>
    <text transform="matrix(1, 0, 0, 1, 360, 510)">
      <tspan x="-84" y="-39" font-family="Kaela" font-size="28" fill="#000000">R&amp;E</tspan>
    </text>
    <text transform="matrix(1, 0, 0, 1, 192, 510)">
      <tspan x="-84" y="-41" font-family="LightButterfly" font-size="28" fill="#000000">R</tspan>
      <tspan x="-74.508" y="-41" font-family="LightButterfly" font-size="21" fill="#000000">&amp;</tspan>
      <tspan x="-67.095" y="-41" font-family="LightButterfly" font-size="28" fill="#000000">E</tspan>
    </text>
    <text transform="matrix(1, 0, 0, 1, 192, 378)">
      <tspan x="-84" y="-44" font-family="SnapDragonRegular" font-size="28" fill="#000000">R</tspan>
      <tspan x="-67.704" y="-44" font-family="SnapDragonRegular" font-size="21" fill="#000000">&amp;</tspan>
      <tspan x="-52.416" y="-44" font-family="SnapDragonRegular" font-size="28" fill="#000000">E</tspan>
    </text>
    <text transform="matrix(1, 0, 0, 1, 192, 246)">
      <tspan x="-84" y="-37" font-family="Sofia" font-size="28" fill="#000000">R</tspan>
      <tspan x="-68.66" y="-37" font-family="Sofia" font-size="21" fill="#000000">&amp;</tspan>
      <tspan x="-53.874" y="-37" font-family="Sofia" font-size="28" fill="#000000">E</tspan>
    </text>
    <path d="M703.275,187.778 C705.634,186.646 707.615,185.09 709.549,183.25 C710.067,182.732 710.539,182.024 711.011,181.411 C715.492,175.609 712.426,176.317 710.728,173.911 C709.077,171.458 706.624,170.845 703.888,171.506 C702.851,171.789 705.586,168.157 704.596,168.581 C704.03,168.77 701.53,167.874 700.964,168.015 C699.926,168.11 699.219,169.76 698.04,172.024 C697.426,173.156 692.285,174.336 692.049,174.76 C691.2,176.175 695.54,176.175 695.398,176.411 C694.078,178.439 692.71,180.42 691.625,182.543 C689.078,187.448 686.767,192.448 684.408,197.448 C683.842,198.769 683.512,200.184 683.182,201.551 C683.04,202.212 683.04,202.966 683.087,203.627 C683.276,204.995 684.314,203.627 685.446,204.004 C686.389,204.381 686.719,210.702 688.229,206.551 C688.7,205.278 689.502,202.919 690.115,201.646 C691.483,199.004 692.662,196.316 693.936,193.674 C694.361,192.778 694.644,191.882 695.068,190.986 C695.398,190.373 695.87,190.042 696.719,190.278 C696.719,190.609 696.766,190.986 696.672,191.269 C696.483,192.354 696.247,193.391 696.011,194.429 C695.068,199.24 695.021,202.212 697.662,207.4 C700.587,213.155 700.398,213.909 707.096,215.749 C709.454,216.409 708.558,216.315 709.266,215.749 C710.728,214.57 710.964,215.513 710.35,214.805 C709.784,214.145 706.624,213.579 703.087,205.702 C701.907,203.108 701.766,196.552 701.719,192.118 C701.719,190.986 701.766,189.807 701.813,188.533 C702.473,188.203 702.851,187.967 703.275,187.778 z M697.426,185.467 C697.426,184.996 697.332,184.713 697.379,184.524 C698.134,182.307 701.105,178.345 701.813,176.222 C702.568,175.939 702.851,175.704 703.37,176.317 C703.747,176.788 704.313,177.449 704.596,178.062 C706.2,181.364 707.284,180.467 702.804,183.345 C701.483,184.194 700.209,184.807 697.426,185.467 z" fill="#000000"/>
    <path d="M729.41,206.038 C730.365,205.401 731.249,204.694 732.134,203.986 L734.221,202.288 C734.61,201.97 734.999,202.005 735.459,202.253 C736.379,202.854 737.298,203.385 738.218,203.951 C738.996,204.446 739.704,205.083 740.553,205.26 C741.048,205.33 741.013,205.719 741.296,205.33 C742.923,203.102 742.675,203.314 741.862,202.182 C741.154,201.191 740.305,200.342 739.562,199.387 C739.173,198.927 739.209,198.644 739.704,198.255 C741.119,197.159 742.499,196.027 744.02,195.107 C744.904,194.576 745.718,193.939 746.213,193.02 C746.355,192.737 746.567,192.454 746.531,192.135 C746.001,187.147 745.329,189.694 744.091,189.8 C742.216,189.942 740.447,190.437 738.926,191.569 C737.971,192.241 737.086,192.949 736.166,193.621 C735.954,193.762 735.671,193.869 735.459,193.833 C734.681,193.656 734.221,192.241 734.716,191.64 C735.105,191.18 735.53,190.685 736.025,190.26 C737.475,188.987 738.501,187.359 739.492,185.732 C740.235,184.529 740.235,183.362 739.739,182.089 C739.279,180.921 738.466,180.214 737.192,180.107 C736.485,180.037 735.777,180.037 735.07,180.001 C732.629,179.966 730.294,180.638 727.959,181.31 C722.405,182.902 723.714,183.999 723.82,186.935 C723.926,189.093 724.528,191.074 725.801,192.843 C726.155,193.303 726.509,193.762 726.827,194.222 C727.216,194.824 727.216,195.001 726.721,195.567 C726.014,196.38 725.235,197.159 724.563,197.972 C723.679,198.998 723.042,200.165 722.865,201.545 C722.582,203.491 723.573,204.694 724.917,205.967 C727.322,208.196 726.19,208.196 729.41,206.038 z M732.7,189.836 C731.851,188.739 731.143,187.536 730.895,186.121 C730.895,185.98 730.895,185.874 730.86,185.626 C730.931,185.414 731.002,185.095 731.178,184.848 C732.558,182.69 734.504,181.77 737.157,181.982 C737.652,182.053 737.935,182.372 738.077,182.831 C738.254,183.362 738.183,183.857 737.9,184.282 C737.44,185.095 736.98,185.98 736.379,186.687 C735.459,187.784 734.362,188.775 733.336,189.8 C733.159,190.013 732.876,190.083 732.7,189.836 z M726.721,202.819 C726.473,203.102 726.721,202.819 726.332,202.642 C725.907,202.394 725.695,201.97 725.801,201.51 C725.872,201.085 725.978,200.661 726.155,200.272 C726.721,199.14 727.535,198.149 728.384,197.229 C728.525,197.088 728.702,197.017 728.844,196.946 C728.95,196.982 729.02,196.982 729.056,197.017 C729.127,197.017 729.162,197.052 729.233,197.088 C730.719,198.184 730.789,198.68 729.551,200.024 C728.808,200.802 727.464,202.04 726.721,202.819 z" fill="#000000"/>
    <path d="M763.046,207.145 C767.244,206.107 771.347,206.767 775.404,205.116 C777.479,204.267 778.941,203.371 780.639,202.569 C785.78,200.117 781.252,201.201 780.639,200.494 C780.262,199.928 779.743,200.069 778.988,200.069 C777.762,200.069 776.488,199.834 775.121,200.258 C772.196,201.201 770.357,200.258 767.904,201.343 C766.63,201.909 765.546,201.626 763.753,202.239 C763.329,202.333 763.376,200.117 763.565,198.89 C764.414,193.985 763.989,194.692 766.159,191.202 C768.659,191.06 769.46,191.343 771.677,190.259 C772.951,189.645 774.979,188.985 776.253,188.136 C776.819,187.9 775.828,187.145 775.687,186.485 C775.404,185.778 774.979,185.353 774.319,185.353 C773.328,185.353 772.338,185.495 771.489,185.636 C770.121,185.778 768.706,186.061 766.913,186.344 C767.904,183.419 769.46,181.061 770.545,178.702 C771.819,178.561 772.762,178.467 773.753,178.136 C776.347,177.712 778.988,177.335 781.771,177.335 C783.894,177.335 785.922,176.91 788.044,176.486 C789.035,176.344 789.082,175.778 789.79,175.071 C790.639,174.222 792.29,174.08 788.186,173.184 C785.592,172.618 783.186,171.91 780.545,171.203 C779.13,170.92 777.62,171.061 776.253,171.203 C772.951,171.91 769.838,172.854 766.913,174.269 C766.064,174.835 765.404,175.495 764.414,176.061 C765.168,177.712 764.414,178.844 763.565,179.976 C762.621,181.202 761.112,184.693 760.404,186.013 C758.989,188.608 758.659,186.391 758.187,187.664 C758.093,187.947 757.999,188.325 758.801,189.174 C759.084,189.504 757.338,189.693 757.15,190.117 C757.055,190.447 758.329,191.626 758.235,191.957 C757.15,195.4 756.772,197.711 756.254,201.343 C756.112,202.852 756.112,204.362 756.112,205.777 C756.112,209.361 754.555,209.22 763.046,207.145 z" fill="#000000"/>
    <path d="M533.032,305.78 C532.833,309.43 531.495,312.606 529.763,315.629 C529.178,316.649 528.007,316.891 526.929,317.008 C526.16,317.091 525.784,316.462 526.22,315.812 C528.03,313.111 528.641,309.898 530.062,307.038 C530.599,305.957 531.3,304.958 531.932,303.925 C532.058,303.719 532.206,303.49 532.492,303.542 C532.759,303.589 532.897,303.818 532.92,304.062 C532.979,304.664 533.001,305.269 533.032,305.78 z M523.3,314.148 C523.227,311.329 523.125,308.964 523.382,306.589 C523.533,305.198 523.596,303.792 523.6,302.393 C523.604,301.076 522.969,300.506 521.672,300.529 C520.945,300.542 520.216,300.594 519.491,300.662 C518.662,300.739 518.313,301.206 518.455,302.036 C519.128,305.972 518.697,309.947 518.816,313.902 C518.956,318.591 518.701,323.288 518.044,327.948 C517.861,329.249 518.21,330.493 518.452,331.746 C518.562,332.318 518.902,332.778 519.421,333.011 C520.545,333.517 521.749,333.78 522.976,333.688 C524.081,333.606 524.727,332.89 524.491,331.842 C523.924,329.322 524.252,326.735 523.783,324.21 C523.607,323.264 523.705,322.268 523.683,321.294 C523.669,320.636 524.013,320.256 524.648,320.183 C525.237,320.117 525.306,320.613 525.431,321.013 C525.65,321.71 525.778,322.447 526.083,323.102 C526.753,324.543 527.251,326.022 527.692,327.555 C529.247,332.955 534.126,335.33 539.104,335.008 C540.335,334.929 540.664,334.175 539.992,333.12 C539.765,332.764 539.439,332.472 539.181,332.132 C538.519,331.258 537.726,330.445 537.243,329.479 C535.767,326.528 533.962,323.79 532.121,321.068 C531.154,319.639 531.193,319.211 532.166,317.806 C534.688,314.162 536.062,310.119 536.387,305.703 C536.499,304.187 536.186,302.827 535.331,301.545 C534.225,299.887 532.431,299.508 530.78,300.679 C529.706,301.441 528.981,302.496 528.353,303.616 C526.887,306.225 525.617,308.927 524.653,311.765 C524.402,312.504 524.166,313.245 523.3,314.148 z" fill="#FFCDB2"/>
    <path d="M550.624,321.52 C549.529,323.71 547.364,324.209 545.544,323.84 C544.658,323.66 544.128,322.785 544.212,321.843 C544.236,321.563 544.268,321.265 544.2,320.999 C544.066,320.474 544.218,320.022 544.433,319.564 C545.258,317.806 546.59,316.692 548.52,316.333 C548.916,316.259 549.333,316.164 549.413,315.708 C549.496,315.226 549.167,314.924 548.788,314.683 C548.475,314.484 548.144,314.417 547.772,314.465 C547.422,314.51 547.065,314.53 546.712,314.519 C546.173,314.501 545.877,314.192 545.788,313.665 C545.597,312.535 546.539,310.876 547.665,310.637 C548.628,310.433 549.591,310.148 550.595,310.151 C550.915,310.152 551.219,310.176 551.529,310.299 C552.346,310.623 552.62,310.468 552.782,309.639 C552.823,309.431 552.814,309.214 552.841,309.004 C553.017,307.645 552.744,307.198 551.378,306.982 C549.133,306.626 547.076,307.166 545.283,308.561 C544.503,309.167 543.742,309.826 543.34,310.78 C542.622,312.484 543.034,314.053 543.962,315.532 C544.217,315.938 544.301,316.194 543.835,316.478 C543.01,316.982 542.646,317.841 542.159,318.63 C540.788,320.85 541.469,325.202 544.407,326.858 C546.69,328.144 549.121,328.211 551.302,326.604 C552.468,325.745 553.433,324.798 553.936,323.371 C554.322,322.277 554.706,321.243 554.333,320.077 C554.214,319.703 554.151,319.303 554.444,318.961 C555.042,318.262 555.502,317.453 556.215,316.843 C556.617,316.5 556.948,316.074 557.319,315.693 C557.667,315.335 557.719,314.966 557.416,314.551 C557.291,314.38 557.204,314.182 557.091,314.001 C556.435,312.953 555.924,312.89 555.127,313.804 C553.536,315.624 551.838,317.337 550.065,318.978 C549.441,319.557 548.811,320.132 548.206,320.731 C547.712,321.221 547.692,321.767 548.103,322.223 C548.567,322.738 548.983,322.744 549.559,322.214 C549.845,321.952 550.085,321.636 550.624,321.52 z" fill="#FFCDB2"/>
    <path d="M568.339,309.035 C568.339,308.07 568.341,306.486 568.338,304.901 C568.336,304.08 568.711,303.659 569.56,303.68 C571.142,303.718 572.735,303.493 574.303,303.825 C576.054,304.196 577.813,303.522 579.569,303.911 C579.998,304.005 580.391,303.7 580.508,303.214 C580.627,302.721 580.338,302.406 579.979,302.145 C579.415,301.733 578.751,301.666 578.083,301.558 C576.44,301.291 574.811,301.781 573.166,301.559 C570.649,301.218 568.079,301.513 565.575,300.953 C565.285,300.888 564.967,300.95 564.663,300.941 C564.011,300.921 563.594,301.216 563.544,301.873 C563.33,304.727 562.445,307.519 562.627,310.403 C562.831,313.627 562.335,316.832 562.573,320.07 C562.76,322.61 562.676,325.17 563.048,327.711 C563.36,329.844 563.996,331.637 566.441,332.072 C566.558,332.093 566.665,332.167 566.777,332.215 C570.907,333.949 575.13,333.498 579.361,332.728 C579.907,332.628 580.469,332.399 580.449,331.7 C580.431,331.084 580.002,330.592 579.461,330.524 C577.828,330.321 576.389,329.348 574.693,329.416 C573.415,329.468 572.134,329.436 570.854,329.422 C569.074,329.404 568.919,329.216 568.664,327.488 C568.289,324.944 568.515,322.378 568.317,319.827 C568.217,318.541 568.542,318.286 569.94,318.244 C571.28,318.204 572.622,318.235 573.961,318.179 C574.513,318.157 575.063,317.994 575.216,317.325 C575.368,316.662 574.964,316.367 574.467,316.034 C573.153,315.152 571.805,315.044 570.286,315.445 C568.719,315.859 568.285,315.471 568.249,313.854 C568.218,312.456 568.03,311.056 568.339,309.035 z" fill="#FFCDB2"/>
    <path d="M528.523,188.986 Q528.622,188.986 528.917,188.74 Q529.213,188.494 529.262,188.494 Q529.459,188.494 530.617,187.582 Q531.775,186.671 531.775,186.523 Q531.775,186.425 531.922,186.425 Q532.021,186.425 532.415,185.957 Q532.809,185.489 532.809,185.39 Q532.809,185.341 533.055,184.996 Q534.189,183.666 534.435,181.794 Q534.533,181.104 534.583,181.006 Q535.026,179.676 535.026,177.557 Q535.026,175.685 534.632,175.143 Q534.533,174.995 534.287,174.404 Q534.189,174.059 534.065,173.862 Q533.942,173.665 533.844,173.468 Q533.597,172.976 533.006,173.321 Q532.908,173.37 532.858,173.419 Q532.661,173.518 532.415,173.665 Q532.169,173.813 532.119,173.813 Q531.922,173.862 531.085,174.749 Q530.247,175.636 530.247,175.734 Q530.247,175.784 529.977,176.03 Q529.706,176.276 529.706,176.375 Q529.706,176.572 529.656,176.572 Q529.311,176.67 527.981,179.331 Q527.144,181.055 527.144,181.301 Q527.144,181.351 526.873,181.917 Q526.602,182.484 526.602,182.582 Q526.602,182.779 526.454,183.124 Q526.306,183.469 526.257,183.617 Q526.011,184.651 525.863,184.75 Q525.469,185.045 525.469,186.917 Q525.469,187.706 525.223,188.321 Q524.976,188.937 524.927,189.43 Q524.779,190.661 524.976,190.661 Q525.469,190.661 527.981,189.233 Q528.326,188.986 528.523,188.986 z M521.676,176.375 Q521.922,175.981 521.922,175.882 Q521.922,175.784 522.365,175.119 Q522.809,174.454 522.858,174.454 Q522.956,174.454 522.956,174.306 Q522.956,174.207 523.227,173.912 Q523.498,173.616 523.498,173.567 Q523.498,173.419 523.646,173.37 Q523.843,173.271 523.991,172.877 Q524.139,172.532 524.656,171.941 Q525.173,171.35 525.321,171.35 Q525.37,171.35 525.567,171.104 Q525.764,170.857 525.814,170.857 Q525.863,170.857 526.232,170.586 Q526.602,170.315 526.7,170.315 Q526.898,170.315 528.523,169.527 Q529.607,169.035 530.297,169.035 Q530.789,169.035 531.085,169.133 Q531.134,169.133 532.44,169.232 Q533.745,169.33 533.844,169.379 Q533.942,169.478 534.927,169.724 Q535.913,169.971 536.011,170.02 Q536.208,170.217 536.307,170.217 Q536.405,170.217 537.218,171.153 Q538.031,172.089 538.031,172.187 Q538.031,172.237 538.277,172.631 Q538.524,173.025 538.524,173.074 Q538.524,173.173 538.819,173.641 Q539.115,174.109 539.115,174.207 Q539.164,174.355 539.312,174.503 Q539.361,174.503 539.509,174.897 Q539.657,175.291 539.854,175.685 L540.002,176.03 L540.1,176.276 Q540.199,176.473 540.273,176.695 Q540.347,176.917 540.396,176.917 Q540.593,177.114 540.593,177.212 Q540.593,177.36 540.839,177.853 Q541.48,179.183 541.48,180.71 Q541.48,183.567 540.741,185.489 Q540.593,185.784 540.593,186.326 Q540.593,186.572 540.347,187.238 Q540.1,187.903 540.1,188.05 Q540.1,188.149 539.854,188.592 Q539.608,189.036 539.558,189.233 Q539.46,190.021 539.164,190.021 Q538.918,190.021 538.573,191.056 Q538.474,191.4 538.351,191.622 Q538.228,191.844 538.13,191.967 Q538.031,192.09 537.785,192.336 Q537.539,192.583 537.391,192.78 Q536.898,193.371 536.701,193.371 Q536.553,193.371 536.455,193.667 Q536.405,193.864 535.666,194.504 Q534.927,195.046 534.927,195.144 Q534.927,195.243 534.681,195.243 Q534.533,195.243 534.262,195.489 Q533.992,195.736 533.893,195.736 Q533.745,195.736 533.4,195.982 Q533.055,196.228 532.169,196.721 Q531.282,197.164 531.282,197.509 Q531.282,197.706 531.479,197.854 Q532.021,198.297 531.922,198.642 Q531.873,198.839 532.119,198.839 Q532.317,198.839 532.317,199.086 Q532.317,199.184 532.711,199.8 Q533.105,200.416 533.154,200.416 Q533.203,200.416 533.523,201.155 Q533.844,201.894 533.844,201.992 Q533.844,202.14 534.09,202.534 Q534.386,203.125 534.386,204.061 Q534.386,204.702 534.238,204.849 L533.992,205.194 Q533.893,205.736 533.721,205.835 Q533.548,205.933 533.499,206.426 Q533.4,207.066 533.351,207.116 Q533.253,207.214 533.253,207.313 Q533.253,207.411 533.031,207.682 Q532.809,207.953 532.809,208.052 Q532.809,208.347 532.07,207.756 Q531.972,207.657 531.922,207.657 Q531.725,207.657 531.676,207.559 Q531.627,207.51 531.233,207.263 Q530.839,207.017 530.789,206.918 Q530.74,206.82 530.247,206.204 Q529.755,205.588 529.706,205.441 Q529.656,205.342 529.164,204.677 Q528.671,204.012 528.671,203.766 Q528.671,203.716 528.425,203.224 Q528.178,202.731 528.178,202.633 Q528.178,202.534 527.907,201.918 Q527.636,201.302 527.636,201.155 Q527.636,201.007 527.538,200.933 Q527.439,200.859 527.292,200.785 Q527.144,200.711 527.095,200.662 Q526.996,200.563 526.306,200.44 Q525.617,200.317 525.518,200.219 Q525.272,200.071 524.976,200.12 Q524.681,200.169 523.745,199.824 Q523.006,199.578 522.907,199.677 Q522.71,199.824 522.71,202.78 Q522.71,203.618 522.587,204.11 Q522.464,204.603 522.464,205.244 Q522.414,205.638 522.439,205.884 Q522.464,206.13 522.439,206.303 Q522.414,206.475 522.316,206.574 Q522.02,206.869 521.922,208.002 Q521.725,209.431 521.528,209.431 Q521.429,209.431 521.429,209.825 Q521.429,210.17 520.986,210.416 Q520.493,210.613 520.395,210.564 Q520.247,210.465 520.148,210.564 L520.148,210.613 Q519.902,210.613 518.621,209.924 Q518.375,209.776 518.178,209.776 Q517.981,209.776 517.981,209.579 Q517.981,209.382 517.34,209.135 Q517.39,209.086 517.587,208.938 Q517.784,208.791 517.833,208.741 L517.636,208.052 Q517.242,206.426 517.193,204.505 Q517.193,203.618 517.02,201.327 Q516.848,199.036 516.848,198.15 L516.848,197.46 Q516.995,195.834 517.316,194.011 Q517.636,192.189 517.734,190.661 Q517.931,187.656 518.227,186.277 Q518.424,185.489 518.621,184.183 Q518.818,182.878 519.04,182.016 Q519.262,181.153 519.656,180.316 Q519.853,179.823 519.853,179.676 Q519.853,179.528 520.124,179.134 Q520.395,178.74 520.395,178.542 Q520.395,178.345 520.69,177.927 Q520.986,177.508 521.035,177.459 Q521.232,177.065 521.331,177.065 Q521.429,177.065 521.429,176.917 Q521.429,176.769 521.676,176.375 z" fill="#000000"/>
    <path d="M552.712,199.689 Q552.712,199.8 552.398,200.132 Q552.084,200.465 552.084,200.539 Q552.084,200.76 551.77,201.259 Q551.456,201.758 551.419,201.943 Q551.382,202.128 551.215,202.386 Q551.049,202.645 551.012,202.94 Q550.938,203.347 550.864,203.421 Q550.754,203.605 550.827,203.975 Q551.197,203.79 551.788,203.421 Q552.158,203.199 552.231,203.199 Q552.379,203.199 552.638,202.94 Q552.897,202.682 553.377,202.405 Q553.857,202.128 554.079,202.128 Q554.227,202.128 554.448,201.998 Q554.67,201.869 554.781,201.869 Q554.929,201.869 554.929,201.795 Q554.929,201.758 555.298,201.536 Q555.631,201.315 555.594,201.056 Q555.52,200.465 555.113,200.058 Q554.966,199.948 554.892,199.689 Q554.818,199.356 554.541,198.802 Q554.264,198.248 554.042,198.248 Q553.599,198.248 553.599,198.47 Q553.599,198.544 553.377,198.784 Q553.155,199.024 553.155,199.061 Q553.155,199.098 552.933,199.356 Q552.712,199.615 552.712,199.689 z M554.079,187.422 Q553.968,187.053 553.635,187.496 Q553.488,187.718 553.34,187.718 Q553.155,187.718 553.155,187.829 Q553.155,187.866 553.007,188.087 Q552.712,188.383 552.712,189.565 Q552.712,190.193 552.86,190.563 Q552.933,190.711 553.007,190.748 Q553.081,190.785 553.118,190.729 Q553.155,190.674 553.155,190.526 Q553.155,190.378 553.229,190.378 Q553.266,190.378 553.432,190.046 Q553.599,189.713 553.599,189.602 Q553.599,189.528 553.783,189.417 Q554.19,189.196 554.19,188.087 Q554.19,187.681 554.079,187.422 z M547.28,209.85 Q546.948,209.85 546.597,209.628 Q546.246,209.406 546.246,209.222 Q546.246,209.148 546.172,209.148 Q546.098,209.148 545.913,208.741 Q545.729,208.335 545.729,208.187 Q545.729,208.076 545.47,207.818 Q545.174,207.559 544.583,206.561 Q544.325,206.118 544.325,205.859 Q544.325,205.638 544.214,205.527 Q544.103,205.416 544.103,204.899 Q544.103,203.938 544.288,203.458 Q544.398,203.162 544.565,202.848 Q544.731,202.534 544.805,202.238 L545.137,201.573 Q545.285,201.278 545.47,201.093 Q545.655,200.908 545.655,200.834 Q545.655,200.76 545.839,200.539 Q546.024,200.317 546.024,200.28 Q546.024,200.169 546.098,200.095 Q546.542,199.652 546.542,199.283 Q546.542,199.135 546.708,199.061 Q546.874,198.987 546.911,198.876 Q546.948,198.691 547.317,198.248 Q547.502,198.026 548.167,197.103 Q548.832,196.179 548.943,196.068 Q549.165,195.846 549.165,195.699 Q549.165,195.588 549.276,195.588 Q549.313,195.588 549.645,195.144 Q549.904,194.812 550.236,194.369 Q550.495,194.073 550.495,193.777 Q550.495,193.519 550.68,193.26 Q551.012,192.854 550.717,192.226 Q550.052,190.858 550.052,189.454 Q550.052,188.679 550.273,188.124 Q550.754,186.979 551.123,186.794 Q551.382,186.609 551.382,186.794 Q551.382,186.942 552.01,186.462 Q552.121,186.388 552.158,186.388 Q552.268,186.388 552.268,186.277 Q552.268,186.203 552.638,185.944 Q553.007,185.686 553.303,185.575 Q553.672,185.39 554.855,185.39 Q555.631,185.39 555.778,185.464 Q556.444,185.723 556.961,186.757 Q557.146,187.09 557.33,187.201 Q557.515,187.238 557.663,187.866 Q557.811,188.346 557.811,188.789 L557.811,189.233 Q557.737,190.046 557.737,190.193 Q557.774,190.489 557.774,190.932 Q557.774,191.45 557.404,192.189 Q557.146,192.706 556.998,193.223 Q556.961,193.445 556.702,193.888 Q556.444,194.332 556.444,194.479 Q556.444,194.627 556.314,194.849 Q556.185,195.071 556,195.329 Q555.815,195.588 555.742,195.736 Q555.52,196.142 555.446,196.142 Q555.372,196.142 555.372,196.253 Q555.372,196.401 555.187,196.585 Q554.781,196.992 555.15,197.287 Q555.298,197.435 555.298,197.509 Q555.298,197.657 555.446,197.731 Q555.594,197.768 555.668,198.063 Q555.742,198.322 555.815,198.322 Q555.889,198.322 555.889,198.433 Q555.889,198.507 556.129,198.839 Q556.37,199.172 556.444,199.209 Q556.517,199.283 556.665,199.578 Q556.961,200.169 557.515,200.132 Q557.921,200.058 558.18,199.874 Q558.476,199.652 558.513,199.652 Q558.623,199.652 559.252,199.209 Q559.88,198.765 559.954,198.765 Q560.064,198.765 560.508,198.47 L560.951,198.137 Q561.21,198.026 561.819,197.583 Q562.429,197.14 562.614,196.918 Q562.799,196.733 562.799,196.844 Q562.799,196.918 562.909,196.77 Q562.983,196.585 563.131,196.585 Q563.205,196.585 563.353,196.401 Q563.501,196.216 563.574,196.216 Q563.648,196.216 563.833,196.013 Q564.018,195.809 564.055,195.809 Q564.129,195.883 564.203,195.736 Q564.24,195.625 564.443,195.643 Q564.646,195.662 564.757,195.625 Q564.868,195.551 565.256,195.606 Q565.644,195.662 565.717,195.773 Q565.754,195.809 565.865,195.809 Q565.976,195.809 565.976,195.883 Q565.976,195.92 566.124,195.92 Q566.198,195.92 566.438,195.883 Q566.678,195.846 566.826,195.846 Q567.158,195.846 567.269,195.994 Q567.343,196.105 567.565,196.031 Q567.787,195.957 567.86,196.105 Q567.897,196.142 568.138,196.29 Q568.378,196.438 568.378,196.548 Q568.378,196.696 568.489,196.807 Q568.599,196.918 568.378,197.287 Q567.86,198.063 567.639,198.063 Q567.602,198.063 567.325,198.285 Q567.048,198.507 566.974,198.507 Q566.863,198.507 566.863,198.654 Q566.863,198.765 566.789,198.765 Q566.752,198.765 566.512,198.987 Q566.272,199.209 566.235,199.209 Q566.198,199.209 565.496,199.744 Q564.794,200.28 564.757,200.28 Q564.683,200.28 564.683,200.428 Q564.683,200.539 564.572,200.539 Q564.498,200.539 564.498,200.724 Q564.498,200.908 564.276,200.945 Q564.092,200.982 563.87,201.241 Q563.759,201.426 563.574,201.426 Q563.501,201.426 563.316,201.647 Q563.131,201.869 563.057,201.869 Q562.983,201.869 562.632,202.109 Q562.281,202.349 562.207,202.349 Q562.023,202.423 562.023,202.497 Q562.023,202.571 561.616,202.719 Q561.284,202.83 561.062,203.051 Q560.914,203.199 560.803,203.199 Q560.693,203.199 560.693,203.273 Q560.693,203.384 560.434,203.642 Q560.212,203.864 560.212,204.123 Q560.212,204.381 560.434,204.677 Q560.619,204.899 560.508,205.231 Q560.434,205.564 560.452,205.656 Q560.471,205.748 560.582,205.952 Q560.693,206.155 560.729,206.303 Q560.766,206.487 560.951,206.672 Q561.136,206.783 561.136,206.949 Q561.136,207.116 560.951,207.116 Q560.803,207.116 560.803,207.226 Q560.803,207.263 560.84,207.411 Q560.877,207.559 560.877,207.633 Q560.877,207.781 560.693,207.781 Q560.656,207.781 560.434,207.707 Q559.917,207.596 559.769,207.005 Q559.732,206.857 559.547,206.598 Q559.252,206.266 559.141,205.712 Q558.993,204.973 558.55,204.973 Q558.402,204.973 557.995,205.176 Q557.589,205.379 557.589,205.453 Q557.589,205.527 557.515,205.453 Q557.441,205.416 557.256,205.527 Q557.072,205.638 557.072,205.712 Q557.072,205.896 556.388,206.321 Q555.705,206.746 555.594,206.746 L555.15,207.005 Q554.744,207.263 554.707,207.263 Q554.633,207.263 554.337,207.559 Q554.005,207.891 553.635,208.076 Q553.266,208.261 553.118,208.409 Q553.044,208.52 552.749,208.612 Q552.453,208.704 552.379,208.778 Q552.268,208.889 551.991,209 Q551.714,209.111 551.603,209.222 Q551.566,209.259 551.437,209.314 Q551.308,209.369 551.215,209.443 Q551.123,209.517 551.123,209.591 Q551.123,209.739 550.44,209.979 Q549.756,210.219 549.202,210.256 Q549.128,210.256 548.999,210.275 Q548.869,210.293 548.832,210.293 Q548.574,210.293 548.056,210.071 Q547.539,209.85 547.28,209.85 z" fill="#000000"/>
    <path d="M576.149,172.631 Q576.445,172.384 576.445,172.286 Q576.445,172.187 576.716,171.966 Q576.987,171.744 576.987,171.695 Q576.987,171.498 577.824,170.611 Q578.415,170.02 578.415,169.921 Q578.415,169.773 578.612,169.773 Q578.859,169.773 578.859,169.626 Q578.859,169.527 579.327,169.281 Q579.795,169.035 580.312,168.764 Q580.829,168.493 580.878,168.493 Q581.765,168 583.243,168 Q584.13,168 584.721,168.296 Q584.967,168.394 585.017,168.296 Q585.066,168 586.199,168.985 Q586.445,169.232 586.593,169.232 Q586.642,169.232 586.864,169.453 Q587.086,169.675 587.283,169.626 L587.431,169.626 Q587.677,169.626 588.194,169.921 Q588.711,170.217 588.958,170.266 Q589.155,170.315 589.327,170.414 Q589.5,170.512 589.672,170.66 Q589.844,170.808 589.943,170.857 Q590.042,170.907 590.189,171.178 Q590.337,171.448 590.436,171.448 Q590.583,171.498 590.583,171.67 Q590.583,171.843 590.485,172.138 Q590.386,172.434 590.386,172.483 Q590.386,172.828 589.598,173.123 Q588.81,173.419 588.81,173.764 Q588.81,173.912 587.48,175.143 Q587.381,175.193 586.765,175.39 Q586.15,175.587 586.051,175.685 Q585.263,176.227 584.475,176.473 Q584.179,176.572 583.613,177.065 Q583.046,177.557 582.997,177.853 Q582.997,177.951 582.479,178.542 Q581.962,179.134 581.962,179.232 Q581.962,179.331 581.691,179.626 Q581.42,179.922 581.42,180.02 Q581.42,180.07 581.026,180.562 Q580.287,181.498 580.287,181.843 Q580.287,182.04 580.066,182.434 Q579.844,182.828 579.795,182.976 Q579.795,183.075 579.622,183.469 Q579.45,183.863 579.499,184.011 Q579.548,184.159 579.376,184.602 Q579.203,185.045 579.203,185.095 Q579.203,185.292 579.056,185.292 Q578.957,185.292 578.957,185.686 Q578.957,185.981 578.785,186.622 Q578.612,187.262 578.612,187.607 Q578.612,187.853 578.464,188.986 Q578.317,190.119 578.317,190.415 L578.317,190.809 Q578.317,191.006 578.292,191.573 Q578.267,192.139 578.267,192.435 Q578.267,193.026 578.366,193.223 Q578.464,193.42 579.401,193.42 Q579.844,193.42 579.992,193.371 Q583.391,192.583 584.13,192.139 Q584.524,191.942 584.672,191.942 Q584.721,191.942 586.593,191.006 Q589.155,189.775 589.155,189.479 Q589.155,189.381 589.598,189.282 Q592.16,188.543 592.505,188.395 Q593.047,188.198 593.194,188.395 Q593.342,188.592 593.342,188.789 Q593.342,188.888 593.515,188.986 Q593.687,189.085 593.638,189.381 Q593.589,189.725 593.786,189.725 Q593.933,189.725 593.958,189.799 Q593.983,189.873 593.909,189.972 Q593.835,190.07 593.835,190.193 Q593.835,190.317 593.933,190.415 Q594.13,190.612 594.13,190.858 Q594.13,191.056 594.229,191.203 Q594.327,191.351 594.327,191.499 Q594.327,191.745 594.672,191.992 Q594.968,192.287 594.919,192.681 Q594.82,193.026 594.771,193.026 Q594.722,193.026 594.623,193.617 Q594.574,194.011 594.377,194.356 Q594.18,194.701 593.983,194.701 Q593.884,194.701 593.293,195.194 Q592.702,195.686 592.308,195.785 Q591.914,195.883 591.914,196.031 Q591.914,196.08 591.643,196.204 Q591.372,196.327 591.175,196.327 Q590.978,196.327 590.633,196.573 Q589.352,197.411 588.711,197.558 Q586.889,198.002 586.445,198.347 Q586.248,198.544 586.051,198.544 Q585.805,198.544 585.164,198.79 Q584.13,199.135 581.962,199.233 Q581.913,199.233 581.814,199.258 Q581.716,199.283 581.667,199.283 Q579.745,199.283 579.647,198.987 Q579.647,198.888 579.203,198.888 Q578.957,198.888 578.908,198.938 Q578.859,198.987 578.908,199.135 Q579.105,200.169 579.401,200.81 Q579.499,201.056 579.622,201.697 Q579.745,202.337 579.918,202.83 Q580.09,203.322 580.287,203.47 Q580.337,203.519 580.977,203.421 Q581.125,203.371 582.036,203.322 Q582.948,203.273 583.194,203.174 Q583.292,203.125 583.44,203.125 L583.686,203.125 Q584.573,203.125 587.135,202.633 Q589.697,202.14 590.731,201.746 Q591.372,201.549 592.012,201.647 Q592.308,201.697 592.48,201.672 Q592.653,201.647 592.776,201.672 Q592.899,201.697 592.997,201.795 Q593.194,201.992 593.441,201.992 Q593.736,201.992 593.835,202.091 L594.525,202.288 Q595.116,202.435 595.362,202.731 Q595.51,202.977 595.756,202.977 Q595.855,202.977 595.953,203.15 Q596.052,203.322 596.101,203.322 Q596.249,203.322 596.569,203.593 Q596.889,203.864 596.889,203.963 Q596.889,204.11 597.086,204.11 Q597.185,204.11 597.53,204.381 Q597.874,204.652 598.022,204.652 Q598.367,204.652 598.367,205.194 Q598.367,205.638 598.072,206.13 Q597.874,206.524 597.874,206.672 Q597.874,206.869 597.677,206.869 Q597.431,206.869 597.283,207.214 Q597.135,207.559 596.865,207.731 Q596.594,207.904 595.953,208.052 Q595.313,208.199 595.165,208.249 Q593.835,208.692 592.012,208.988 Q591.47,209.086 591.322,209.234 Q591.125,209.431 588.958,209.628 Q587.825,209.727 587.578,209.874 Q587.332,210.022 586.839,210.121 Q586.347,210.219 585.731,210.293 Q585.115,210.367 584.869,210.416 Q583.884,210.613 582.406,210.613 Q580.435,210.613 579.942,210.17 Q579.893,210.121 579.696,210.022 Q579.499,209.924 579.351,209.85 Q579.203,209.776 579.203,209.727 L579.006,209.628 Q578.809,209.529 578.588,209.431 Q578.366,209.332 578.317,209.283 Q578.169,209.185 577.873,209.012 Q577.578,208.84 577.43,208.495 Q577.184,208.002 577.085,207.904 Q576.987,207.805 576.987,207.657 Q576.987,207.51 576.592,207.042 Q576.198,206.574 576.198,206.475 Q576.198,206.377 576.026,206.278 Q575.854,206.18 575.854,206.081 Q575.854,206.032 575.312,205.194 Q574.77,204.357 574.77,204.307 L574.523,204.061 Q574.376,203.913 574.228,203.519 Q574.08,203.125 573.981,202.977 Q573.883,202.83 573.76,202.337 Q573.637,201.844 573.489,201.746 Q573.341,201.697 573.341,201.45 Q573.341,201.204 572.947,200.342 Q572.553,199.48 572.553,199.283 Q572.553,199.036 572.356,198.642 Q572.208,198.396 572.085,197.928 Q571.962,197.46 571.814,196.844 Q571.666,196.228 571.617,196.031 Q571.518,195.686 571.444,194.603 Q571.37,193.519 571.272,193.174 Q571.124,192.632 571.124,190.661 Q571.124,188.198 571.321,185.366 Q571.518,182.533 571.765,182.04 Q571.814,181.991 571.912,181.474 Q572.011,180.956 572.109,180.907 Q572.208,180.809 572.208,180.661 Q572.208,180.513 572.38,180.119 Q572.553,179.725 572.553,179.626 Q572.553,179.528 572.824,178.887 Q573.095,178.247 573.095,178.198 Q573.095,178.05 573.292,177.656 Q573.292,177.606 573.834,176.547 Q574.376,175.488 574.573,175.242 Q574.77,174.946 574.77,174.7 Q574.77,174.503 575.312,173.764 Q575.854,173.025 575.854,172.877 Q575.854,172.828 576.149,172.631 z" fill="#000000"/>
    <g>
      <path d="M12.89,23.17 Q12.999,23.17 13.325,22.898 Q13.652,22.626 13.706,22.626 Q13.924,22.626 15.202,21.62 Q16.48,20.613 16.48,20.45 Q16.48,20.341 16.643,20.341 Q16.752,20.341 17.187,19.825 Q17.622,19.308 17.622,19.199 Q17.622,19.145 17.894,18.764 Q19.145,17.296 19.417,15.229 Q19.526,14.467 19.58,14.359 Q20.069,12.89 20.069,10.551 Q20.069,8.485 19.634,7.886 Q19.526,7.723 19.254,7.071 Q19.145,6.69 19.009,6.472 Q18.873,6.255 18.764,6.037 Q18.492,5.493 17.84,5.874 Q17.731,5.928 17.676,5.983 Q17.459,6.092 17.187,6.255 Q16.915,6.418 16.861,6.418 Q16.643,6.472 15.718,7.451 Q14.794,8.43 14.794,8.539 Q14.794,8.593 14.495,8.865 Q14.195,9.137 14.195,9.246 Q14.195,9.464 14.141,9.464 Q13.76,9.572 12.292,12.509 Q11.367,14.413 11.367,14.685 Q11.367,14.739 11.068,15.365 Q10.769,15.99 10.769,16.099 Q10.769,16.317 10.606,16.697 Q10.443,17.078 10.388,17.241 Q10.116,18.383 9.953,18.492 Q9.518,18.819 9.518,20.885 Q9.518,21.756 9.246,22.435 Q8.974,23.115 8.92,23.659 Q8.757,25.019 8.974,25.019 Q9.518,25.019 12.292,23.442 Q12.673,23.17 12.89,23.17 z M5.33,9.246 Q5.602,8.811 5.602,8.702 Q5.602,8.593 6.092,7.859 Q6.581,7.125 6.635,7.125 Q6.744,7.125 6.744,6.962 Q6.744,6.853 7.043,6.527 Q7.342,6.2 7.342,6.146 Q7.342,5.983 7.506,5.928 Q7.723,5.82 7.886,5.384 Q8.05,5.004 8.621,4.351 Q9.192,3.698 9.355,3.698 Q9.409,3.698 9.627,3.426 Q9.844,3.155 9.899,3.155 Q9.953,3.155 10.361,2.855 Q10.769,2.556 10.878,2.556 Q11.095,2.556 12.89,1.686 Q14.087,1.142 14.848,1.142 Q15.392,1.142 15.718,1.251 Q15.773,1.251 17.214,1.36 Q18.655,1.468 18.764,1.523 Q18.873,1.632 19.961,1.904 Q21.048,2.176 21.157,2.23 Q21.375,2.447 21.484,2.447 Q21.592,2.447 22.49,3.481 Q23.387,4.514 23.387,4.623 Q23.387,4.677 23.659,5.113 Q23.931,5.548 23.931,5.602 Q23.931,5.711 24.257,6.228 Q24.584,6.744 24.584,6.853 Q24.638,7.016 24.801,7.179 Q24.856,7.179 25.019,7.614 Q25.182,8.05 25.4,8.485 L25.563,8.865 L25.672,9.137 Q25.78,9.355 25.862,9.6 Q25.943,9.844 25.998,9.844 Q26.215,10.062 26.215,10.171 Q26.215,10.334 26.487,10.878 Q27.194,12.346 27.194,14.032 Q27.194,17.187 26.379,19.308 Q26.215,19.634 26.215,20.233 Q26.215,20.505 25.943,21.239 Q25.672,21.973 25.672,22.136 Q25.672,22.245 25.4,22.735 Q25.128,23.224 25.073,23.442 Q24.964,24.312 24.638,24.312 Q24.366,24.312 23.985,25.454 Q23.877,25.835 23.741,26.079 Q23.605,26.324 23.496,26.46 Q23.387,26.596 23.115,26.868 Q22.843,27.14 22.68,27.358 Q22.136,28.01 21.919,28.01 Q21.756,28.01 21.647,28.337 Q21.592,28.554 20.777,29.261 Q19.961,29.859 19.961,29.968 Q19.961,30.077 19.689,30.077 Q19.526,30.077 19.226,30.349 Q18.927,30.621 18.819,30.621 Q18.655,30.621 18.275,30.893 Q17.894,31.165 16.915,31.709 Q15.936,32.198 15.936,32.579 Q15.936,32.796 16.153,32.96 Q16.752,33.449 16.643,33.83 Q16.589,34.047 16.861,34.047 Q17.078,34.047 17.078,34.319 Q17.078,34.428 17.513,35.108 Q17.948,35.788 18.003,35.788 Q18.057,35.788 18.411,36.604 Q18.764,37.42 18.764,37.528 Q18.764,37.691 19.036,38.127 Q19.362,38.779 19.362,39.813 Q19.362,40.52 19.199,40.683 L18.927,41.064 Q18.819,41.662 18.628,41.771 Q18.438,41.879 18.383,42.423 Q18.275,43.13 18.22,43.185 Q18.111,43.294 18.111,43.402 Q18.111,43.511 17.867,43.81 Q17.622,44.109 17.622,44.218 Q17.622,44.544 16.806,43.892 Q16.697,43.783 16.643,43.783 Q16.425,43.783 16.371,43.674 Q16.317,43.62 15.882,43.348 Q15.446,43.076 15.392,42.967 Q15.338,42.858 14.794,42.179 Q14.25,41.499 14.195,41.336 Q14.141,41.227 13.597,40.493 Q13.053,39.758 13.053,39.486 Q13.053,39.432 12.781,38.888 Q12.509,38.344 12.509,38.235 Q12.509,38.127 12.21,37.447 Q11.911,36.767 11.911,36.604 Q11.911,36.441 11.802,36.359 Q11.694,36.277 11.53,36.196 Q11.367,36.114 11.313,36.06 Q11.204,35.951 10.443,35.815 Q9.681,35.679 9.572,35.57 Q9.3,35.407 8.974,35.462 Q8.648,35.516 7.614,35.135 Q6.799,34.863 6.69,34.972 Q6.472,35.135 6.472,38.399 Q6.472,39.323 6.336,39.867 Q6.2,40.411 6.2,41.118 Q6.146,41.553 6.173,41.825 Q6.2,42.097 6.173,42.287 Q6.146,42.478 6.037,42.586 Q5.711,42.913 5.602,44.164 Q5.385,45.741 5.167,45.741 Q5.058,45.741 5.058,46.176 Q5.058,46.557 4.569,46.829 Q4.025,47.046 3.916,46.992 Q3.753,46.883 3.644,46.992 L3.644,47.046 Q3.372,47.046 1.958,46.285 Q1.686,46.122 1.469,46.122 Q1.251,46.122 1.251,45.904 Q1.251,45.687 0.544,45.415 Q0.598,45.36 0.816,45.197 Q1.033,45.034 1.088,44.98 L0.87,44.218 Q0.435,42.423 0.381,40.302 Q0.381,39.323 0.19,36.794 Q0,34.265 0,33.286 L0,32.525 Q0.163,30.73 0.517,28.717 Q0.87,26.705 0.979,25.019 Q1.197,21.701 1.523,20.178 Q1.74,19.308 1.958,17.867 Q2.176,16.425 2.42,15.474 Q2.665,14.522 3.1,13.597 Q3.318,13.053 3.318,12.89 Q3.318,12.727 3.617,12.292 Q3.916,11.857 3.916,11.639 Q3.916,11.422 4.242,10.959 Q4.569,10.497 4.623,10.443 Q4.841,10.008 4.949,10.008 Q5.058,10.008 5.058,9.844 Q5.058,9.681 5.33,9.246 z" fill="#000000"/>
      <path d="M39.595,34.986 Q39.595,35.108 39.248,35.475 Q38.902,35.842 38.902,35.924 Q38.902,36.169 38.555,36.719 Q38.208,37.27 38.167,37.474 Q38.127,37.678 37.943,37.963 Q37.759,38.249 37.719,38.575 Q37.637,39.024 37.556,39.106 Q37.433,39.31 37.515,39.717 Q37.923,39.514 38.575,39.106 Q38.983,38.861 39.065,38.861 Q39.228,38.861 39.514,38.575 Q39.799,38.29 40.329,37.984 Q40.86,37.678 41.104,37.678 Q41.268,37.678 41.512,37.535 Q41.757,37.392 41.879,37.392 Q42.043,37.392 42.043,37.311 Q42.043,37.27 42.451,37.025 Q42.818,36.78 42.777,36.495 Q42.695,35.842 42.247,35.394 Q42.083,35.271 42.002,34.986 Q41.92,34.619 41.614,34.007 Q41.308,33.395 41.064,33.395 Q40.574,33.395 40.574,33.64 Q40.574,33.721 40.329,33.986 Q40.085,34.251 40.085,34.292 Q40.085,34.333 39.84,34.619 Q39.595,34.904 39.595,34.986 z M41.104,21.443 Q40.982,21.035 40.615,21.524 Q40.452,21.769 40.289,21.769 Q40.085,21.769 40.085,21.892 Q40.085,21.932 39.921,22.177 Q39.595,22.503 39.595,23.809 Q39.595,24.502 39.758,24.91 Q39.84,25.073 39.921,25.114 Q40.003,25.155 40.044,25.094 Q40.085,25.032 40.085,24.869 Q40.085,24.706 40.166,24.706 Q40.207,24.706 40.391,24.339 Q40.574,23.972 40.574,23.85 Q40.574,23.768 40.778,23.646 Q41.227,23.401 41.227,22.177 Q41.227,21.728 41.104,21.443 z M33.599,46.203 Q33.232,46.203 32.844,45.959 Q32.457,45.714 32.457,45.51 Q32.457,45.428 32.375,45.428 Q32.293,45.428 32.089,44.98 Q31.885,44.531 31.885,44.368 Q31.885,44.245 31.6,43.96 Q31.274,43.674 30.621,42.573 Q30.335,42.083 30.335,41.798 Q30.335,41.553 30.213,41.431 Q30.091,41.308 30.091,40.737 Q30.091,39.677 30.295,39.146 Q30.417,38.82 30.601,38.473 Q30.784,38.127 30.866,37.8 L31.233,37.066 Q31.396,36.74 31.6,36.536 Q31.804,36.332 31.804,36.25 Q31.804,36.169 32.008,35.924 Q32.212,35.679 32.212,35.638 Q32.212,35.516 32.293,35.434 Q32.783,34.945 32.783,34.537 Q32.783,34.374 32.966,34.292 Q33.15,34.211 33.191,34.088 Q33.232,33.884 33.64,33.395 Q33.843,33.15 34.578,32.13 Q35.312,31.11 35.434,30.988 Q35.679,30.743 35.679,30.58 Q35.679,30.458 35.801,30.458 Q35.842,30.458 36.209,29.968 Q36.495,29.601 36.862,29.112 Q37.148,28.785 37.148,28.459 Q37.148,28.173 37.352,27.888 Q37.719,27.439 37.392,26.746 Q36.658,25.236 36.658,23.686 Q36.658,22.83 36.903,22.218 Q37.433,20.953 37.841,20.749 Q38.127,20.545 38.127,20.749 Q38.127,20.913 38.82,20.382 Q38.942,20.301 38.983,20.301 Q39.106,20.301 39.106,20.178 Q39.106,20.097 39.514,19.811 Q39.921,19.526 40.248,19.403 Q40.656,19.199 41.961,19.199 Q42.818,19.199 42.981,19.281 Q43.715,19.566 44.286,20.709 Q44.49,21.076 44.694,21.198 Q44.898,21.239 45.061,21.932 Q45.224,22.463 45.224,22.952 L45.224,23.442 Q45.143,24.339 45.143,24.502 Q45.184,24.829 45.184,25.318 Q45.184,25.889 44.776,26.705 Q44.49,27.276 44.327,27.847 Q44.286,28.092 44.001,28.581 Q43.715,29.071 43.715,29.234 Q43.715,29.397 43.572,29.642 Q43.43,29.887 43.226,30.172 Q43.022,30.458 42.94,30.621 Q42.695,31.07 42.614,31.07 Q42.532,31.07 42.532,31.192 Q42.532,31.355 42.328,31.559 Q41.879,32.008 42.287,32.334 Q42.451,32.497 42.451,32.579 Q42.451,32.742 42.614,32.824 Q42.777,32.864 42.858,33.191 Q42.94,33.476 43.022,33.476 Q43.103,33.476 43.103,33.599 Q43.103,33.68 43.368,34.047 Q43.633,34.415 43.715,34.455 Q43.797,34.537 43.96,34.863 Q44.286,35.516 44.898,35.475 Q45.347,35.394 45.632,35.19 Q45.959,34.945 45.999,34.945 Q46.122,34.945 46.815,34.455 Q47.509,33.966 47.59,33.966 Q47.713,33.966 48.202,33.64 L48.692,33.272 Q48.977,33.15 49.65,32.661 Q50.323,32.171 50.527,31.926 Q50.731,31.722 50.731,31.845 Q50.731,31.926 50.854,31.763 Q50.935,31.559 51.098,31.559 Q51.18,31.559 51.343,31.355 Q51.506,31.151 51.588,31.151 Q51.669,31.151 51.873,30.927 Q52.077,30.703 52.118,30.703 Q52.2,30.784 52.281,30.621 Q52.322,30.499 52.546,30.519 Q52.771,30.539 52.893,30.499 Q53.016,30.417 53.444,30.478 Q53.872,30.539 53.954,30.662 Q53.995,30.703 54.117,30.703 Q54.239,30.703 54.239,30.784 Q54.239,30.825 54.402,30.825 Q54.484,30.825 54.749,30.784 Q55.014,30.743 55.178,30.743 Q55.545,30.743 55.667,30.906 Q55.749,31.029 55.993,30.947 Q56.238,30.866 56.32,31.029 Q56.36,31.07 56.626,31.233 Q56.891,31.396 56.891,31.518 Q56.891,31.682 57.013,31.804 Q57.136,31.926 56.891,32.334 Q56.32,33.191 56.075,33.191 Q56.034,33.191 55.728,33.436 Q55.422,33.68 55.341,33.68 Q55.218,33.68 55.218,33.843 Q55.218,33.966 55.137,33.966 Q55.096,33.966 54.831,34.211 Q54.566,34.455 54.525,34.455 Q54.484,34.455 53.709,35.047 Q52.934,35.638 52.893,35.638 Q52.812,35.638 52.812,35.801 Q52.812,35.924 52.689,35.924 Q52.608,35.924 52.608,36.128 Q52.608,36.332 52.363,36.373 Q52.159,36.413 51.914,36.699 Q51.792,36.903 51.588,36.903 Q51.506,36.903 51.302,37.148 Q51.098,37.392 51.017,37.392 Q50.935,37.392 50.548,37.658 Q50.16,37.923 50.079,37.923 Q49.875,38.004 49.875,38.086 Q49.875,38.167 49.426,38.331 Q49.059,38.453 48.814,38.698 Q48.651,38.861 48.528,38.861 Q48.406,38.861 48.406,38.942 Q48.406,39.065 48.121,39.35 Q47.876,39.595 47.876,39.881 Q47.876,40.166 48.121,40.493 Q48.325,40.737 48.202,41.104 Q48.121,41.472 48.141,41.574 Q48.161,41.675 48.284,41.9 Q48.406,42.124 48.447,42.287 Q48.488,42.491 48.692,42.695 Q48.896,42.818 48.896,43.001 Q48.896,43.185 48.692,43.185 Q48.528,43.185 48.528,43.307 Q48.528,43.348 48.569,43.511 Q48.61,43.674 48.61,43.756 Q48.61,43.919 48.406,43.919 Q48.365,43.919 48.121,43.837 Q47.549,43.715 47.386,43.062 Q47.346,42.899 47.142,42.614 Q46.815,42.247 46.693,41.635 Q46.53,40.819 46.04,40.819 Q45.877,40.819 45.428,41.043 Q44.98,41.268 44.98,41.349 Q44.98,41.431 44.898,41.349 Q44.816,41.308 44.612,41.431 Q44.409,41.553 44.409,41.635 Q44.409,41.839 43.654,42.308 Q42.899,42.777 42.777,42.777 L42.287,43.062 Q41.839,43.348 41.798,43.348 Q41.716,43.348 41.39,43.674 Q41.023,44.041 40.615,44.245 Q40.207,44.449 40.044,44.612 Q39.962,44.735 39.636,44.837 Q39.31,44.939 39.228,45.02 Q39.106,45.143 38.8,45.265 Q38.494,45.388 38.371,45.51 Q38.331,45.551 38.188,45.612 Q38.045,45.673 37.943,45.755 Q37.841,45.836 37.841,45.918 Q37.841,46.081 37.086,46.346 Q36.332,46.611 35.72,46.652 Q35.638,46.652 35.496,46.672 Q35.353,46.693 35.312,46.693 Q35.026,46.693 34.455,46.448 Q33.884,46.203 33.599,46.203 z" fill="#000000"/>
      <path d="M65.471,5.113 Q65.797,4.841 65.797,4.732 Q65.797,4.623 66.096,4.378 Q66.395,4.134 66.395,4.079 Q66.395,3.862 67.32,2.883 Q67.973,2.23 67.973,2.121 Q67.973,1.958 68.19,1.958 Q68.462,1.958 68.462,1.795 Q68.462,1.686 68.979,1.414 Q69.495,1.142 70.066,0.843 Q70.638,0.544 70.692,0.544 Q71.671,0 73.303,0 Q74.282,0 74.934,0.326 Q75.206,0.435 75.261,0.326 Q75.315,0 76.566,1.088 Q76.838,1.36 77.001,1.36 Q77.055,1.36 77.3,1.604 Q77.545,1.849 77.762,1.795 L77.926,1.795 Q78.198,1.795 78.769,2.121 Q79.34,2.448 79.612,2.502 Q79.829,2.556 80.02,2.665 Q80.21,2.774 80.4,2.937 Q80.591,3.1 80.7,3.155 Q80.808,3.209 80.971,3.508 Q81.135,3.807 81.243,3.807 Q81.407,3.862 81.407,4.052 Q81.407,4.242 81.298,4.569 Q81.189,4.895 81.189,4.949 Q81.189,5.33 80.319,5.656 Q79.449,5.983 79.449,6.364 Q79.449,6.527 77.98,7.886 Q77.871,7.941 77.191,8.158 Q76.512,8.376 76.403,8.485 Q75.533,9.083 74.662,9.355 Q74.336,9.464 73.711,10.008 Q73.085,10.551 73.031,10.878 Q73.031,10.987 72.46,11.639 Q71.889,12.292 71.889,12.401 Q71.889,12.509 71.589,12.836 Q71.29,13.162 71.29,13.271 Q71.29,13.325 70.855,13.869 Q70.039,14.903 70.039,15.283 Q70.039,15.501 69.795,15.936 Q69.55,16.371 69.495,16.534 Q69.495,16.643 69.305,17.078 Q69.115,17.513 69.169,17.676 Q69.223,17.84 69.033,18.329 Q68.843,18.819 68.843,18.873 Q68.843,19.09 68.68,19.09 Q68.571,19.09 68.571,19.526 Q68.571,19.852 68.38,20.559 Q68.19,21.266 68.19,21.647 Q68.19,21.919 68.027,23.17 Q67.864,24.421 67.864,24.747 L67.864,25.182 Q67.864,25.4 67.837,26.025 Q67.809,26.651 67.809,26.977 Q67.809,27.63 67.918,27.847 Q68.027,28.065 69.06,28.065 Q69.55,28.065 69.713,28.01 Q73.466,27.14 74.282,26.651 Q74.717,26.433 74.88,26.433 Q74.934,26.433 77.001,25.4 Q79.829,24.04 79.829,23.714 Q79.829,23.605 80.319,23.496 Q83.147,22.68 83.528,22.517 Q84.126,22.299 84.289,22.517 Q84.452,22.735 84.452,22.952 Q84.452,23.061 84.643,23.17 Q84.833,23.278 84.779,23.605 Q84.724,23.985 84.942,23.985 Q85.105,23.985 85.132,24.067 Q85.159,24.149 85.078,24.257 Q84.996,24.366 84.996,24.502 Q84.996,24.638 85.105,24.747 Q85.323,24.964 85.323,25.236 Q85.323,25.454 85.431,25.617 Q85.54,25.78 85.54,25.943 Q85.54,26.215 85.921,26.487 Q86.247,26.814 86.193,27.249 Q86.084,27.63 86.03,27.63 Q85.975,27.63 85.866,28.282 Q85.812,28.717 85.594,29.098 Q85.377,29.479 85.159,29.479 Q85.051,29.479 84.398,30.023 Q83.745,30.567 83.31,30.675 Q82.875,30.784 82.875,30.947 Q82.875,31.002 82.576,31.138 Q82.277,31.274 82.059,31.274 Q81.842,31.274 81.461,31.546 Q80.047,32.47 79.34,32.633 Q77.327,33.123 76.838,33.504 Q76.62,33.721 76.403,33.721 Q76.131,33.721 75.424,33.993 Q74.282,34.374 71.889,34.483 Q71.834,34.483 71.725,34.51 Q71.617,34.537 71.562,34.537 Q69.441,34.537 69.332,34.211 Q69.332,34.102 68.843,34.102 Q68.571,34.102 68.516,34.156 Q68.462,34.211 68.516,34.374 Q68.734,35.516 69.06,36.223 Q69.169,36.495 69.305,37.202 Q69.441,37.909 69.631,38.453 Q69.822,38.997 70.039,39.16 Q70.094,39.214 70.801,39.106 Q70.964,39.051 71.97,38.997 Q72.976,38.942 73.248,38.834 Q73.357,38.779 73.52,38.779 L73.792,38.779 Q74.771,38.779 77.599,38.235 Q80.428,37.691 81.57,37.256 Q82.277,37.039 82.984,37.148 Q83.31,37.202 83.501,37.175 Q83.691,37.148 83.827,37.175 Q83.963,37.202 84.072,37.311 Q84.289,37.528 84.561,37.528 Q84.887,37.528 84.996,37.637 L85.758,37.855 Q86.41,38.018 86.682,38.344 Q86.845,38.616 87.117,38.616 Q87.226,38.616 87.335,38.806 Q87.444,38.997 87.498,38.997 Q87.661,38.997 88.015,39.296 Q88.368,39.595 88.368,39.704 Q88.368,39.867 88.586,39.867 Q88.695,39.867 89.075,40.166 Q89.456,40.465 89.619,40.465 Q90,40.465 90,41.064 Q90,41.553 89.674,42.097 Q89.456,42.532 89.456,42.695 Q89.456,42.913 89.239,42.913 Q88.967,42.913 88.803,43.294 Q88.64,43.674 88.341,43.865 Q88.042,44.055 87.335,44.218 Q86.628,44.381 86.465,44.436 Q84.996,44.925 82.984,45.252 Q82.386,45.36 82.222,45.523 Q82.005,45.741 79.612,45.959 Q78.361,46.067 78.089,46.231 Q77.817,46.394 77.273,46.502 Q76.729,46.611 76.049,46.693 Q75.369,46.774 75.097,46.829 Q74.01,47.046 72.378,47.046 Q70.202,47.046 69.659,46.557 Q69.604,46.502 69.387,46.394 Q69.169,46.285 69.006,46.203 Q68.843,46.122 68.843,46.067 L68.625,45.959 Q68.408,45.85 68.163,45.741 Q67.918,45.632 67.864,45.578 Q67.701,45.469 67.374,45.279 Q67.048,45.088 66.885,44.708 Q66.613,44.164 66.504,44.055 Q66.395,43.946 66.395,43.783 Q66.395,43.62 65.96,43.103 Q65.525,42.586 65.525,42.478 Q65.525,42.369 65.335,42.26 Q65.144,42.151 65.144,42.043 Q65.144,41.988 64.546,41.064 Q63.948,40.139 63.948,40.085 L63.676,39.813 Q63.513,39.649 63.349,39.214 Q63.186,38.779 63.078,38.616 Q62.969,38.453 62.833,37.909 Q62.697,37.365 62.534,37.256 Q62.37,37.202 62.37,36.93 Q62.37,36.658 61.935,35.706 Q61.5,34.754 61.5,34.537 Q61.5,34.265 61.283,33.83 Q61.12,33.558 60.984,33.041 Q60.848,32.525 60.684,31.845 Q60.521,31.165 60.467,30.947 Q60.358,30.567 60.276,29.37 Q60.195,28.173 60.086,27.793 Q59.923,27.194 59.923,25.019 Q59.923,22.299 60.141,19.172 Q60.358,16.045 60.63,15.501 Q60.684,15.446 60.793,14.875 Q60.902,14.304 61.011,14.25 Q61.12,14.141 61.12,13.978 Q61.12,13.815 61.31,13.38 Q61.5,12.945 61.5,12.836 Q61.5,12.727 61.799,12.02 Q62.099,11.313 62.099,11.258 Q62.099,11.095 62.316,10.66 Q62.316,10.606 62.914,9.436 Q63.513,8.267 63.73,7.995 Q63.948,7.669 63.948,7.397 Q63.948,7.179 64.546,6.364 Q65.144,5.548 65.144,5.385 Q65.144,5.33 65.471,5.113 z" fill="#000000"/>
    </g>
  </g>
</svg>
