<?xml version="1.0" encoding="UTF-8"?>
<!DOCTYPE svg PUBLIC "-//W3C//DTD SVG 1.1//EN" "http://www.w3.org/Graphics/SVG/1.1/DTD/svg11.dtd">
<svg version="1.1" xmlns="http://www.w3.org/2000/svg" xmlns:xlink="http://www.w3.org/1999/xlink" x="0" y="0" width="300" height="168" viewBox="0, 0, 300, 168">
  <g id="Background">
    <rect x="0" y="0" width="300" height="168" fill="#000000" fill-opacity="0"/>
  </g>
  <g id="logo">
    <g>
      <path d="M72.138,27.715 C71.185,45.215 64.766,60.444 56.457,74.94 C53.655,79.829 48.035,80.992 42.864,81.552 C39.174,81.952 37.37,78.935 39.462,75.816 C48.147,62.866 51.077,47.459 57.892,33.748 C60.467,28.565 63.83,23.771 66.864,18.819 C67.469,17.831 68.177,16.736 69.55,16.982 C70.828,17.211 71.49,18.309 71.604,19.475 C71.885,22.362 71.989,25.265 72.138,27.715 z M25.458,67.839 C25.107,54.324 24.617,42.981 25.852,31.596 C26.575,24.926 26.876,18.184 26.897,11.472 C26.917,5.161 23.87,2.424 17.65,2.537 C14.158,2.601 10.663,2.848 7.185,3.173 C3.211,3.544 1.534,5.781 2.215,9.763 C5.445,28.636 3.38,47.696 3.947,66.658 C4.62,89.144 3.394,111.663 0.246,134.007 C-0.633,140.249 1.04,146.211 2.202,152.223 C2.731,154.962 4.363,157.169 6.85,158.287 C12.244,160.712 18.017,161.972 23.904,161.533 C29.205,161.139 32.302,157.704 31.171,152.683 C28.448,140.599 30.023,128.194 27.773,116.086 C26.93,111.552 27.397,106.772 27.296,102.104 C27.227,98.95 28.877,97.125 31.925,96.779 C34.747,96.459 35.078,98.841 35.68,100.757 C36.729,104.097 37.342,107.631 38.804,110.774 C42.018,117.683 44.409,124.775 46.526,132.126 C53.982,158.018 77.389,169.404 101.265,167.862 C107.171,167.481 108.747,163.869 105.527,158.811 C104.437,157.1 102.87,155.701 101.636,154.072 C98.459,149.879 94.655,145.983 92.337,141.35 C85.257,127.202 76.598,114.074 67.767,101.018 C63.133,94.167 63.32,92.117 67.986,85.378 C80.085,67.906 86.674,48.519 88.233,27.347 C88.769,20.076 87.266,13.553 83.165,7.406 C77.862,-0.542 69.255,-2.36 61.335,3.257 C56.187,6.908 52.709,11.969 49.693,17.338 C42.662,29.849 36.571,42.804 31.946,56.412 C30.742,59.954 29.612,63.51 25.458,67.839 z" fill="#FFCDB2"/>
      <path d="M156.523,103.189 C151.272,113.69 140.887,116.081 132.155,114.31 C127.907,113.449 125.366,109.252 125.765,104.738 C125.883,103.395 126.037,101.964 125.711,100.692 C125.067,98.171 125.795,96.005 126.826,93.809 C130.784,85.378 137.174,80.036 146.43,78.315 C148.329,77.962 150.332,77.507 150.713,75.318 C151.115,73.008 149.533,71.558 147.717,70.405 C146.217,69.452 144.63,69.127 142.845,69.358 C141.165,69.575 139.45,69.67 137.758,69.616 C135.171,69.532 133.755,68.052 133.327,65.523 C132.412,60.105 136.929,52.148 142.328,51.004 C146.95,50.024 151.57,48.658 156.385,48.672 C157.922,48.677 159.376,48.792 160.866,49.384 C164.783,50.938 166.099,50.193 166.877,46.218 C167.072,45.222 167.029,44.183 167.16,43.171 C168.004,36.659 166.694,34.513 160.14,33.476 C149.372,31.774 139.505,34.363 130.902,41.049 C127.163,43.955 123.512,47.116 121.585,51.689 C118.141,59.861 120.115,67.383 124.569,74.473 C125.792,76.421 126.194,77.648 123.959,79.012 C120,81.426 118.256,85.548 115.92,89.329 C109.343,99.973 112.61,120.843 126.702,128.781 C137.655,134.952 149.313,135.27 159.774,127.567 C165.371,123.446 169.997,118.906 172.41,112.063 C174.261,106.817 176.102,101.862 174.314,96.267 C173.742,94.477 173.443,92.558 174.847,90.918 C177.715,87.567 179.921,83.684 183.343,80.763 C185.272,79.118 186.859,77.076 188.637,75.248 C190.309,73.53 190.557,71.761 189.102,69.771 C188.503,68.951 188.086,68 187.544,67.135 C184.4,62.11 181.948,61.809 178.121,66.188 C170.493,74.917 162.345,83.128 153.844,91 C150.847,93.775 147.827,96.53 144.926,99.404 C142.556,101.753 142.459,104.372 144.43,106.558 C146.655,109.026 148.653,109.057 151.415,106.517 C152.785,105.258 153.938,103.743 156.523,103.189 z" fill="#FFCDB2"/>
      <path d="M241.496,43.323 C241.496,38.697 241.508,31.099 241.492,23.501 C241.483,19.562 243.283,17.546 247.355,17.644 C254.942,17.827 262.583,16.751 270.107,18.342 C278.506,20.119 286.944,16.888 295.368,18.751 C297.422,19.205 299.31,17.739 299.87,15.411 C300.439,13.046 299.054,11.539 297.331,10.283 C294.626,8.311 291.443,7.989 288.239,7.469 C280.359,6.19 272.541,8.542 264.651,7.474 C252.58,5.841 240.25,7.255 228.241,4.571 C226.848,4.259 225.326,4.554 223.865,4.51 C220.74,4.417 218.735,5.831 218.499,8.98 C217.471,22.668 213.225,36.054 214.099,49.881 C215.076,65.342 212.698,80.707 213.841,96.235 C214.736,108.413 214.333,120.689 216.119,132.873 C217.618,143.099 220.664,151.698 232.394,153.785 C232.954,153.885 233.467,154.242 234.006,154.468 C253.818,162.784 274.074,160.621 294.367,156.929 C296.989,156.452 299.685,155.352 299.588,152 C299.502,149.046 297.445,146.686 294.846,146.362 C287.016,145.388 280.114,140.724 271.977,141.051 C265.848,141.297 259.7,141.143 253.562,141.08 C245.026,140.992 244.278,140.089 243.057,131.802 C241.26,119.604 242.341,107.301 241.391,95.069 C240.912,88.903 242.473,87.683 249.177,87.481 C255.604,87.287 262.043,87.434 268.466,87.169 C271.112,87.06 273.751,86.279 274.485,83.074 C275.214,79.895 273.275,78.479 270.894,76.882 C264.588,72.652 258.126,72.133 250.838,74.057 C243.322,76.042 241.241,74.184 241.067,66.432 C240.916,59.724 240.015,53.013 241.496,43.323 z" fill="#FFCDB2"/>
    </g>
  </g>
</svg>
